<svg xmlns="http://www.w3.org/2000/svg" xmlns:xlink="http://www.w3.org/1999/xlink" width="500" zoomAndPan="magnify" viewBox="0 0 375 374.999991" height="500" preserveAspectRatio="xMidYMid meet" version="1.0"><defs><clipPath id="95270c2663"><path d="M 0 295.445312 L 295.449219 -0.00390625 L 375 79.546875 L 79.546875 374.996094 Z M 0 295.445312 " clip-rule="nonzero"/></clipPath><clipPath id="566a91b44b"><path d="M 137 0 L 297 0 L 297 80 L 137 80 Z M 137 0 " clip-rule="nonzero"/></clipPath><clipPath id="41bec2078a"><path d="M 217.21875 -79.550781 L 296.769531 0 L 217.21875 79.550781 L 137.671875 0 Z M 217.21875 -79.550781 " clip-rule="nonzero"/></clipPath><clipPath id="c80844c89f"><path d="M 0 138 L 80 138 L 80 298 L 0 298 Z M 0 138 " clip-rule="nonzero"/></clipPath><clipPath id="bcef5278a9"><path d="M 0 138.550781 L 79.550781 218.097656 L 0 297.648438 L -79.550781 218.097656 Z M 0 138.550781 " clip-rule="nonzero"/></clipPath><clipPath id="c8335fe2d1"><path d="M 78 293 L 238 293 L 238 375 L 78 375 Z M 78 293 " clip-rule="nonzero"/></clipPath><clipPath id="40a7ca9325"><path d="M 157.808594 293.945312 L 237.359375 373.496094 L 157.808594 453.046875 L 78.261719 373.496094 Z M 157.808594 293.945312 " clip-rule="nonzero"/></clipPath><clipPath id="9b2de78940"><path d="M 21.003906 79.550781 L 135.800781 79.550781 L 135.800781 194.347656 L 21.003906 194.347656 Z M 21.003906 79.550781 " clip-rule="nonzero"/></clipPath><clipPath id="c99081f234"><path d="M 78.402344 79.550781 C 46.699219 79.550781 21.003906 105.246094 21.003906 136.949219 C 21.003906 168.648438 46.699219 194.347656 78.402344 194.347656 C 110.101562 194.347656 135.800781 168.648438 135.800781 136.949219 C 135.800781 105.246094 110.101562 79.550781 78.402344 79.550781 Z M 78.402344 79.550781 " clip-rule="nonzero"/></clipPath><clipPath id="9d98f7f333"><path d="M 41 41 L 100 41 L 100 100 L 41 100 Z M 41 41 " clip-rule="nonzero"/></clipPath><clipPath id="b075ff230c"><path d="M 81.089844 41.15625 L 99.515625 59.582031 L 59.5 99.597656 L 41.074219 81.171875 Z M 81.089844 41.15625 " clip-rule="nonzero"/></clipPath><clipPath id="1b4e55e848"><path d="M 41 77 L 139 77 L 139 175 L 41 175 Z M 41 77 " clip-rule="nonzero"/></clipPath><clipPath id="099f5625a9"><path d="M 41.082031 154.574219 L 117.871094 77.78125 L 138.128906 98.042969 L 61.339844 174.832031 Z M 41.082031 154.574219 " clip-rule="nonzero"/></clipPath><clipPath id="41dffc7774"><path d="M 61 41 L 120 41 L 120 100 L 61 100 Z M 61 41 " clip-rule="nonzero"/></clipPath><clipPath id="8a6cf230f8"><path d="M 81.265625 41.15625 L 119.667969 79.558594 L 99.628906 99.597656 L 61.226562 61.195312 Z M 81.265625 41.15625 " clip-rule="nonzero"/></clipPath><clipPath id="0202444e8e"><path d="M 0 0 L 160 0 L 160 80 L 0 80 Z M 0 0 " clip-rule="nonzero"/></clipPath><clipPath id="bd5175c568"><path d="M 79.550781 -79.550781 L 159.097656 0 L 79.550781 79.550781 L 0 0 Z M 79.550781 -79.550781 " clip-rule="nonzero"/></clipPath><clipPath id="9a188260bc"><path d="M 21 114 L 62 114 L 62 155 L 21 155 Z M 21 114 " clip-rule="nonzero"/></clipPath><clipPath id="1c5a3964ad"><path d="M 40.835938 114.738281 L 61.226562 135.132812 L 41.394531 154.96875 L 21 134.574219 Z M 40.835938 114.738281 " clip-rule="nonzero"/></clipPath><clipPath id="415d363dd3"><path d="M 60 154 L 101 154 L 101 195 L 60 195 Z M 60 154 " clip-rule="nonzero"/></clipPath><clipPath id="d11db93491"><path d="M 80.898438 154.199219 L 100.972656 174.273438 L 80.898438 194.347656 L 60.824219 174.273438 Z M 80.898438 154.199219 " clip-rule="nonzero"/></clipPath></defs><rect x="-37.5" width="450" fill="#ffffff" y="-37.499999" height="449.999989" fill-opacity="1"/><rect x="-37.5" width="450" fill="#ffffff" y="-37.499999" height="449.999989" fill-opacity="1"/><g clip-path="url(#95270c2663)"><path fill="#2a9df4" d="M 0 295.445312 L 295.511719 -0.0664062 L 375.0625 79.484375 L 79.546875 374.996094 Z M 0 295.445312 " fill-opacity="1" fill-rule="nonzero"/></g><g clip-path="url(#566a91b44b)"><g clip-path="url(#41bec2078a)"><path fill="#2a9df4" d="M 217.21875 -79.550781 L 296.769531 0 L 217.21875 79.550781 L 137.671875 0 Z M 217.21875 -79.550781 " fill-opacity="1" fill-rule="nonzero"/></g></g><g clip-path="url(#c80844c89f)"><g clip-path="url(#bcef5278a9)"><path fill="#2a9df4" d="M 0 138.550781 L 79.550781 218.097656 L 0 297.648438 L -79.550781 218.097656 Z M 0 138.550781 " fill-opacity="1" fill-rule="nonzero"/></g></g><g clip-path="url(#c8335fe2d1)"><g clip-path="url(#40a7ca9325)"><path fill="#2a9df4" d="M 157.808594 293.945312 L 237.359375 373.496094 L 157.808594 453.046875 L 78.261719 373.496094 Z M 157.808594 293.945312 " fill-opacity="1" fill-rule="nonzero"/></g></g><g clip-path="url(#9b2de78940)"><g clip-path="url(#c99081f234)"><path fill="#2a9df4" d="M 21.003906 79.550781 L 135.800781 79.550781 L 135.800781 194.347656 L 21.003906 194.347656 Z M 21.003906 79.550781 " fill-opacity="1" fill-rule="nonzero"/></g></g><g clip-path="url(#9d98f7f333)"><g clip-path="url(#b075ff230c)"><path fill="#ffffff" d="M 81.089844 41.15625 L 99.515625 59.582031 L 59.5 99.601562 L 41.074219 81.175781 Z M 81.089844 41.15625 " fill-opacity="1" fill-rule="nonzero"/></g></g><g clip-path="url(#1b4e55e848)"><g clip-path="url(#099f5625a9)"><path fill="#ffffff" d="M 41.082031 154.574219 L 117.839844 77.8125 L 138.101562 98.070312 L 61.339844 174.832031 Z M 41.082031 154.574219 " fill-opacity="1" fill-rule="nonzero"/></g></g><g clip-path="url(#41dffc7774)"><g clip-path="url(#8a6cf230f8)"><path fill="#ffffff" d="M 81.265625 41.15625 L 119.699219 79.589844 L 99.660156 99.628906 L 61.226562 61.195312 Z M 81.265625 41.15625 " fill-opacity="1" fill-rule="nonzero"/></g></g><g clip-path="url(#0202444e8e)"><g clip-path="url(#bd5175c568)"><path fill="#2a9df4" d="M 79.550781 -79.550781 L 159.097656 0 L 79.550781 79.550781 L 0 0 Z M 79.550781 -79.550781 " fill-opacity="1" fill-rule="nonzero"/></g></g><g clip-path="url(#9a188260bc)"><g clip-path="url(#1c5a3964ad)"><path fill="#ffffff" d="M 40.835938 114.738281 L 61.210938 135.117188 L 41.375 154.949219 L 21 134.574219 Z M 40.835938 114.738281 " fill-opacity="1" fill-rule="nonzero"/></g></g><g clip-path="url(#415d363dd3)"><g clip-path="url(#d11db93491)"><path fill="#ffffff" d="M 80.898438 154.199219 L 100.972656 174.273438 L 80.898438 194.347656 L 60.824219 174.273438 Z M 80.898438 154.199219 " fill-opacity="1" fill-rule="nonzero"/></g></g></svg>